<?xml version="1.0" encoding="UTF-8"?>
<svg id="Layer_1" data-name="Layer 1" xmlns="http://www.w3.org/2000/svg" viewBox="0 0 3157.44 400">
  <defs>
    <style>
      .cls-1 {
        fill: #f29a91;
      }

      .cls-2 {
        fill: #f29979;
      }
    </style>
  </defs>
  <g>
    <path class="cls-1" d="M373.76,163.3c-13.17-13.17-28.73-22.47-45.28-27.92,25.88-10.34,44.17-35.62,44.17-65.19C372.64,31.43,341.22,0,302.45,0s-70.19,31.43-70.19,70.19c0,26.7,14.9,49.91,36.84,61.78-21.29,4.38-41.58,14.82-58.1,31.33l-11.05,11.05,24.94,24.94,11.05-11.05c31.12-31.12,81.75-31.12,112.86,0,31.12,31.12,31.12,81.75,0,112.86l-57.13,57.13-52.21-52.21c-.17-.16-.35-.31-.52-.46-.18-.19-.34-.4-.53-.58l-63.87-63.87c-6.87-6.77-18.02-6.76-24.85,.07-6.86,6.86-6.86,18.08,0,24.94l63.87,63.87c.17,.17,.35,.31,.52,.47,.18,.19,.34,.39,.52,.58l63.87,63.87c3.64,3.59,8.46,5.26,13.2,5.05,4.78,.22,9.63-1.48,13.28-5.13l68.78-68.78c44.94-44.94,44.94-117.81,0-162.75ZM302.45,35.28c19.25,0,34.92,15.66,34.92,34.92s-15.66,34.92-34.92,34.92-34.92-15.66-34.92-34.92,15.66-34.92,34.92-34.92Z"/>
    <path class="cls-2" d="M278.29,245.12l-76.83-76.83c-.06-.06-.12-.1-.17-.16l-4.83-4.83c-16.52-16.52-36.81-26.96-58.1-31.33,21.94-11.87,36.84-35.08,36.84-61.78C175.2,31.43,143.78,0,105.01,0S34.82,31.43,34.82,70.19c0,29.57,18.29,54.85,44.17,65.19-16.55,5.45-32.12,14.75-45.28,27.92-44.94,44.94-44.94,117.81,0,162.75l68.78,68.78c3.44,3.44,7.96,5.17,12.47,5.17s9.03-1.72,12.47-5.17c6.89-6.89,6.89-18.06,0-24.94l-68.78-68.78c-31.12-31.12-31.12-81.75,0-112.86,15.56-15.56,36-23.34,56.43-23.34s40.87,7.78,56.43,23.34l68.78,68.78c.06,.06,.12,.1,.18,.16l12.87,12.87c3.43,3.43,7.95,5.14,12.47,5.14s9.04-1.71,12.47-5.14c6.86-6.86,6.86-18.08,0-24.94ZM105.01,35.28c19.25,0,34.92,15.66,34.92,34.92s-15.66,34.92-34.92,34.92-34.92-15.66-34.92-34.92,15.66-34.92,34.92-34.92Z"/>
  </g>
  <g>
    <path class="cls-1" d="M673.13,58.53h11.57c2.81,0,6.55,.13,11.21,.37,7.84,0,14.2,1.41,19.11,4.23,4.9,2.82,8.76,6.25,11.57,10.29,2.81,4.04,4.71,8.39,5.7,13.04,.98,4.66,1.47,8.82,1.47,12.49v186.3c0,.25-.06,1.65-.18,4.23-.13,2.57-.43,5.58-.92,9-.49,3.43-1.17,6.98-2.02,10.66-.86,3.67-2.02,6.73-3.49,9.19-1.96,2.94-4.84,5.27-8.64,6.98-3.8,1.71-7.6,3-11.39,3.86-3.8,.86-7.29,1.34-10.47,1.47-3.19,.12-4.9,.18-5.14,.18h-66.51c-2.2,0-5.58-.18-10.1-.55-4.54-.37-9.25-1.23-14.15-2.57-4.9-1.35-9.5-3.37-13.78-6.06-4.29-2.7-7.41-6.37-9.37-11.02-3.43-8.08-5.33-16.54-5.7-25.35-.37-8.82-.43-17.51-.18-26.09V126.88c0-.74-.18-3.24-.55-7.53-.37-4.28-.55-9.19-.55-14.7s.37-11.14,1.1-16.9c.73-5.75,2.08-10.59,4.04-14.51,2.45-4.9,5.75-8.45,9.92-10.66,4.16-2.21,8.76-3.61,13.78-4.23,5.02-.61,10.16-.74,15.43-.37,5.27,.37,10.1,.55,14.51,.55,7.84,0,15.25,.06,22.23,.18,6.98,.13,14.15,.06,21.5-.18Zm-54.38,216.43c.24,1.96,1.04,3.92,2.39,5.88,1.34,1.96,3.36,3.19,6.06,3.67l34.17,.37c2.94-.24,5.88-.55,8.82-.92s5.63-1.29,8.08-2.76c2.69-1.47,4.16-4.04,4.41-7.72,.24-3.67,.24-7.22,0-10.66v-122.73c0-3.18-.13-6.25-.37-9.19-.25-2.69-.43-5.39-.55-8.08-.13-2.69-.31-5.02-.55-6.98-.49-4.65-2.15-7.53-4.96-8.64-2.82-1.1-4.96-1.65-6.43-1.65h-.37l-31.23-.73c-5.88,0-10.17,.86-12.86,2.57-2.7,1.72-4.66,4.29-5.88,7.72-.25,1.23-.43,3-.55,5.33-.13,2.33-.18,4.78-.18,7.35v147.16Zm213.49-110.97c1.22,0,2.39,.13,3.49,.37,1.1,.25,2.26,.37,3.49,.37,1.22,.25,2.57,.43,4.04,.55,1.47,.13,2.94,.31,4.41,.55,2.69,.49,5.39,1.41,8.08,2.76,2.69,1.35,4.65,3.37,5.88,6.06,1.71,2.7,2.57,5.88,2.57,9.55,0,1.96-.06,3.74-.18,5.33-.13,1.6-.43,3.37-.92,5.33-.49,1.96-1.04,4.04-1.65,6.25-.61,2.21-1.78,3.92-3.49,5.14-3.43,2.45-6.74,4.04-9.92,4.78-3.92,.49-8.7,.61-14.33,.37-5.64-.24-10.42-.24-14.33,0-.25,0-.49,.13-.73,.37h-.37l-.37,.37v47.4c.49,12.74,.49,25.23,0,37.48v5.14c0,3.18-.06,6.67-.18,10.47-.13,3.79-.43,7.53-.92,11.21-.49,3.67-1.35,7.17-2.57,10.47-1.23,3.31-2.94,6.06-5.14,8.27-2.94,3.43-6.86,5.14-11.76,5.14l-.73-.37c-5.88-.25-10.6-1.96-14.15-5.14-3.55-3.19-6.25-7.11-8.08-11.76-1.84-4.66-3-9.5-3.49-14.51-.49-5.02-.73-9.5-.73-13.41V80.76c0-2.08,.24-4.53,.73-7.35,.49-2.81,1.29-5.75,2.39-8.82,1.1-3.06,2.63-5.57,4.59-7.53,1.71-1.71,4.23-3,7.53-3.86,3.31-.86,6.3-1.29,9-1.29,5.39,0,9.92,1.84,13.6,5.51,3.43,3.43,5.45,7.04,6.06,10.84,.61,3.8,1.16,7.78,1.65,11.94,.24,.98,.37,2.45,.37,4.41,.49,4.17,.79,8.45,.92,12.86,.12,4.41,.3,8.82,.55,13.23,0,2.7,.06,5.33,.18,7.9,.12,2.57,.18,5.21,.18,7.9-.25,1.47-.31,2.88-.18,4.23,.12,1.35,.18,2.63,.18,3.86v24.62c0,1.47,.24,2.82,.73,4.04,0,.25,1.22,.37,3.67,.37h4.04c2.2,.49,3.92,.61,5.14,.37h.73Z"/>
    <path class="cls-1" d="M1110.76,188.61c4.16,0,8.45,.06,12.86,.18,4.41,.13,8.39,.8,11.94,2.02,3.55,1.23,6.43,3.25,8.64,6.06,2.2,2.82,3.31,7.04,3.31,12.68,0,4.9-2.45,9.55-7.35,13.96-3.92,3.43-8.64,5.33-14.15,5.7s-10.72,.43-15.62,.18c-1.23-.24-2.33-.37-3.31-.37h-212.75c-1.72,0-3.8-.18-6.25-.55-2.45-.37-4.84-1.22-7.17-2.57-2.33-1.34-4.35-3.18-6.06-5.51-1.72-2.33-2.57-5.57-2.57-9.74,0-7.1,2.39-12.55,7.17-16.35,4.78-3.79,9.98-5.7,15.62-5.7h215.69Zm-101.05-19.47c-17.64,0-34.12-.61-49.42-1.84-15.31-1.22-28.54-3.98-39.68-8.27-11.15-4.28-19.91-10.41-26.27-18.37-6.37-7.96-9.55-18.68-9.55-32.15,0-12.25,3.18-22.29,9.55-30.13,6.37-7.84,15.12-14.02,26.27-18.56,11.14-4.53,24.37-7.65,39.68-9.37,15.31-1.71,31.78-2.57,49.42-2.57s34.11,.61,49.42,1.84c15.31,1.23,28.53,3.92,39.68,8.08,11.14,4.17,19.9,10.23,26.27,18.19,6.37,7.96,9.55,18.8,9.55,32.52s-3.19,24.19-9.55,32.15c-6.37,7.96-15.13,14.09-26.27,18.37-11.15,4.29-24.38,7.04-39.68,8.27-15.31,1.23-31.78,1.84-49.42,1.84Zm-112.44,175.64c-.25,0-.61-.25-1.1-.74-2.45-1.96-4.1-4.66-4.96-8.08-.86-3.43-1.29-6.49-1.29-9.19-.25-4.41-.55-8.82-.92-13.23-.37-4.41-.55-8.7-.55-12.86v-17.27c0-5.14,.61-10.78,1.84-16.9,.73-3.92,1.96-7.04,3.67-9.37,1.71-2.33,4.41-4.23,8.08-5.7,6.86-2.69,13.72-4.04,20.58-4.04h169.39c4.65,.25,9.43,.61,14.33,1.1,4.9,.49,9.55,1.72,13.96,3.67,4.9,1.96,8.14,4.72,9.74,8.27,1.59,3.55,2.63,7.78,3.12,12.68,.24,4.17,.42,8.95,.55,14.33,.12,5.39,.06,10.84-.18,16.35-.25,5.51-.61,10.96-1.1,16.35-.49,5.38-1.35,10.29-2.57,14.7-.73,2.69-1.6,5.08-2.57,7.17-.98,2.08-2.94,3.61-5.88,4.59-2.7,.98-5.45,1.59-8.27,1.84-2.82,.24-5.57,.37-8.27,.37l-187.77-.74c-3.19-.25-6.61-.37-10.29-.37s-6.86-.98-9.55-2.94Zm34.91-41.89c0,1.22,.06,2.45,.18,3.67,.12,1.22,.55,2.08,1.29,2.57,.49,.49,1.29,.79,2.39,.92,1.1,.12,2.26,.18,3.49,.18s2.69-.13,4.41-.37h111.34c3.43,.24,6.73,.49,9.92,.74,2.69,.24,5.51,.37,8.45,.37s5.63-.25,8.08-.74c2.45-.25,3.92-.98,4.41-2.2,.49-1.23,.86-2.94,1.1-5.14,.24-1.96,.37-4.23,.37-6.8s-.73-4.83-2.21-6.8c-1.72-1.96-4.1-3-7.17-3.12-3.07-.12-5.82-.06-8.27,.18h-98.48c-5.39-.49-10.66-.67-15.8-.55-5.14,.13-10.42,.31-15.8,.55-1.96,0-3.49,.06-4.59,.18-1.1,.13-1.9,1.29-2.39,3.49-.49,1.72-.73,3.37-.73,4.96v4.59c.24,.49,.3,.98,.18,1.47-.13,.49-.18,1.1-.18,1.84Zm77.53-213.86c-9.07,0-18.07,.13-27.01,.37-8.95,.25-16.97,1.04-24.07,2.39-7.11,1.35-12.86,3.31-17.27,5.88-4.41,2.57-6.61,6.19-6.61,10.84,0,8.33,6.67,13.91,20.03,16.72,13.35,2.82,31.66,3.98,54.93,3.49,9.06,0,18.06-.06,27.01-.18,8.94-.12,16.96-.73,24.07-1.84,7.1-1.1,12.86-3.06,17.27-5.88,4.41-2.81,6.61-6.92,6.61-12.31,0-4.65-2.2-8.27-6.61-10.84-4.41-2.57-10.17-4.53-17.27-5.88-7.11-1.34-15.13-2.14-24.07-2.39-8.95-.24-17.95-.37-27.01-.37Z"/>
    <path class="cls-1" d="M1351.8,277.16c2.69,1.72,4.78,3.98,6.25,6.8,1.47,2.82,2.39,5.82,2.76,9,.37,3.19,.24,6.37-.37,9.55-.61,3.18-1.53,5.88-2.76,8.08-2.21,3.92-5.39,6.3-9.55,7.17-4.17,.86-8.21,1.29-12.13,1.29h-145.14c-2.94-.25-5.39-.55-7.35-.92-1.96-.37-4.04-.8-6.25-1.29-2.2-.49-4.17-1.1-5.88-1.84-5.14-2.7-8.33-7.72-9.55-15.07-.49-3.92-.18-7.59,.92-11.02,1.1-3.43,2.88-6.25,5.33-8.45,4.41-3.67,9-6,13.78-6.98,4.78-.98,9.24-1.47,13.41-1.47,1.71,0,5.39,.06,11.02,.18,5.63,.13,12.73,.31,21.31,.55l1.1-101.05c.98-2.94,2.45-5.45,4.41-7.53,1.96-2.08,4.28-3.73,6.98-4.96,2.69-.98,5.51-1.47,8.45-1.47,5.39,0,10.16,1.41,14.33,4.23,4.16,2.82,6.86,6.43,8.08,10.84,.24,.49,.42,3.19,.55,8.08,.12,4.9,.24,10.84,.37,17.82,.12,6.98,.24,14.51,.37,22.6,.12,8.08,.18,15.74,.18,22.97v28.48c.74,.25,3.18,.37,7.35,.37s9.12-.06,14.88-.18c5.75-.12,11.94-.18,18.56-.18h19.11c8.08,0,14.57,1.47,19.48,4.41Zm-168.29-168.66c-4.9-2.94-8.08-7.22-9.55-12.86-1.23-5.14-.73-9.55,1.47-13.23,1.47-2.45,2.81-4.65,4.04-6.61,1.22-1.96,2.81-3.55,4.78-4.78,1.96-1.22,4.65-2.14,8.08-2.76,3.43-.61,8.08-.92,13.96-.92h89.66c28.41,1.23,45.56,9.92,51.44,26.09,2.21,6.37,3.49,12.8,3.86,19.29,.37,6.49,.42,12.92,.18,19.29v21.31c0,3.19,.06,6.13,.18,8.82,.12,2.7,.18,4.78,.18,6.25,0,5.88,.06,11.82,.18,17.82,.12,6.01-.06,11.94-.55,17.82,0,2.2-.37,5.27-1.1,9.19-.73,3.92-1.78,7.9-3.12,11.94-1.35,4.04-3.12,7.78-5.33,11.21-2.2,3.43-4.9,5.88-8.08,7.35-3.43,1.47-6.86,2.2-10.29,2.2-5.64,0-10.54-2.2-14.7-6.61-4.17-4.41-6.86-10.29-8.08-17.64-.49-2.69-.86-11.33-1.1-25.91-.25-14.57-.37-32.89-.37-54.93v-13.6c-.25-2.45-.86-4.9-1.84-7.35-.98-2.45-2.7-3.92-5.14-4.41-2.21-.49-4.23-.86-6.06-1.1-1.84-.24-2.64-.37-2.39-.37h-3.31c-1.47,0-4.1-.06-7.9-.18-3.8-.12-9.25-.24-16.35-.37-7.11-.12-16.66-.18-28.66-.18-1.96,0-3.92,.06-5.88,.18-1.96,.13-3.92,.18-5.88,.18h-6.98c-2.45,0-5.39-.24-8.82-.73-2.7-.49-5.45-.92-8.27-1.29-2.82-.37-5.57-1.41-8.27-3.12Zm263.09,65.04c1.47,0,2.88,.13,4.23,.37,1.34,.25,2.76,.49,4.23,.74,2.69,.49,5.39,1.41,8.08,2.76,2.69,1.35,4.78,3.37,6.25,6.06,1.47,2.94,2.21,6.25,2.21,9.92v5.14c0,1.72-.25,3.43-.73,5.14-.49,1.96-1.1,4.04-1.84,6.25-.73,2.2-1.84,3.92-3.31,5.14-3.19,2.45-6.61,4.04-10.29,4.78-4.9,.74-9.8,1.04-14.7,.92-4.9-.12-9.92-.3-15.07-.55,0,5.64-.06,11.82-.18,18.56-.13,6.74-.18,13.66-.18,20.76v50.89c0,3.79-.31,7.53-.92,11.21-.61,3.67-1.47,7.22-2.57,10.66-1.1,3.43-2.76,6.25-4.96,8.45-3.67,3.18-7.96,4.78-12.86,4.78-5.88-.25-10.6-2.02-14.15-5.33-3.55-3.31-6.19-7.29-7.9-11.94-1.72-4.66-2.82-9.5-3.31-14.51-.49-5.02-.73-9.5-.73-13.41V78.56c0-2.08,.18-4.53,.55-7.35,.37-2.81,1.1-5.75,2.2-8.82,1.1-3.06,2.63-5.57,4.59-7.53,1.96-1.71,4.53-3,7.72-3.86,3.18-.86,6.12-1.29,8.82-1.29,5.63,0,10.29,1.84,13.96,5.51,3.18,3.43,5.08,7.04,5.7,10.84,.61,3.8,1.16,7.78,1.65,11.94,.24,2.7,.55,6.74,.92,12.13,.37,5.39,.67,11.33,.92,17.82,.24,6.49,.42,13.29,.55,20.39,.12,7.11,.24,13.72,.37,19.84,.12,6.13,.18,11.45,.18,15.98v9l20.58,.37Z"/>
    <path class="cls-1" d="M1681.4,58.53h11.57c2.81,0,6.55,.13,11.21,.37,7.84,0,14.2,1.41,19.11,4.23,4.9,2.82,8.76,6.25,11.57,10.29,2.81,4.04,4.71,8.39,5.7,13.04,.98,4.66,1.47,8.82,1.47,12.49v186.3c0,.25-.06,1.65-.18,4.23-.13,2.57-.43,5.58-.92,9-.49,3.43-1.17,6.98-2.02,10.66-.86,3.67-2.02,6.73-3.49,9.19-1.96,2.94-4.84,5.27-8.64,6.98-3.8,1.71-7.6,3-11.39,3.86-3.8,.86-7.29,1.34-10.47,1.47-3.19,.12-4.9,.18-5.14,.18h-66.51c-2.2,0-5.58-.18-10.1-.55-4.54-.37-9.25-1.23-14.15-2.57-4.9-1.35-9.5-3.37-13.78-6.06-4.29-2.7-7.41-6.37-9.37-11.02-3.43-8.08-5.33-16.54-5.7-25.35-.37-8.82-.43-17.51-.18-26.09V126.88c0-.74-.18-3.24-.55-7.53-.37-4.28-.55-9.19-.55-14.7s.37-11.14,1.1-16.9c.73-5.75,2.08-10.59,4.04-14.51,2.45-4.9,5.75-8.45,9.92-10.66,4.16-2.21,8.76-3.61,13.78-4.23,5.02-.61,10.16-.74,15.43-.37,5.27,.37,10.1,.55,14.51,.55,7.84,0,15.25,.06,22.23,.18,6.98,.13,14.15,.06,21.5-.18Zm-54.38,216.43c.24,1.96,1.04,3.92,2.39,5.88,1.34,1.96,3.36,3.19,6.06,3.67l34.17,.37c2.94-.24,5.88-.55,8.82-.92s5.63-1.29,8.08-2.76c2.69-1.47,4.16-4.04,4.41-7.72,.24-3.67,.24-7.22,0-10.66v-122.73c0-3.18-.13-6.25-.37-9.19-.25-2.69-.43-5.39-.55-8.08-.13-2.69-.31-5.02-.55-6.98-.49-4.65-2.15-7.53-4.96-8.64-2.82-1.1-4.96-1.65-6.43-1.65h-.37l-31.23-.73c-5.88,0-10.17,.86-12.86,2.57-2.7,1.72-4.66,4.29-5.88,7.72-.25,1.23-.43,3-.55,5.33-.13,2.33-.18,4.78-.18,7.35v147.16Zm213.49-110.97c1.22,0,2.39,.13,3.49,.37,1.1,.25,2.26,.37,3.49,.37,1.22,.25,2.57,.43,4.04,.55,1.47,.13,2.94,.31,4.41,.55,2.69,.49,5.39,1.41,8.08,2.76,2.69,1.35,4.65,3.37,5.88,6.06,1.71,2.7,2.57,5.88,2.57,9.55,0,1.96-.06,3.74-.18,5.33-.13,1.6-.43,3.37-.92,5.33-.49,1.96-1.04,4.04-1.65,6.25-.61,2.21-1.78,3.92-3.49,5.14-3.43,2.45-6.74,4.04-9.92,4.78-3.92,.49-8.7,.61-14.33,.37-5.64-.24-10.42-.24-14.33,0-.25,0-.49,.13-.73,.37h-.37l-.37,.37v47.4c.49,12.74,.49,25.23,0,37.48v5.14c0,3.18-.06,6.67-.18,10.47-.13,3.79-.43,7.53-.92,11.21-.49,3.67-1.35,7.17-2.57,10.47-1.23,3.31-2.94,6.06-5.14,8.27-2.94,3.43-6.86,5.14-11.76,5.14l-.73-.37c-5.88-.25-10.6-1.96-14.15-5.14-3.55-3.19-6.25-7.11-8.08-11.76-1.84-4.66-3-9.5-3.49-14.51-.49-5.02-.73-9.5-.73-13.41V80.76c0-2.08,.24-4.53,.73-7.35,.49-2.81,1.29-5.75,2.39-8.82,1.1-3.06,2.63-5.57,4.59-7.53,1.71-1.71,4.23-3,7.53-3.86,3.31-.86,6.3-1.29,9-1.29,5.39,0,9.92,1.84,13.6,5.51,3.43,3.43,5.45,7.04,6.06,10.84,.61,3.8,1.16,7.78,1.65,11.94,.24,.98,.37,2.45,.37,4.41,.49,4.17,.79,8.45,.92,12.86,.12,4.41,.3,8.82,.55,13.23,0,2.7,.06,5.33,.18,7.9,.12,2.57,.18,5.21,.18,7.9-.25,1.47-.31,2.88-.18,4.23,.12,1.35,.18,2.63,.18,3.86v24.62c0,1.47,.24,2.82,.73,4.04,0,.25,1.22,.37,3.67,.37h4.04c2.2,.49,3.92,.61,5.14,.37h.73Z"/>
    <path class="cls-1" d="M2119.04,188.61c4.16,0,8.45,.06,12.86,.18,4.41,.13,8.39,.8,11.94,2.02,3.55,1.23,6.43,3.25,8.64,6.06,2.2,2.82,3.31,7.04,3.31,12.68,0,4.9-2.45,9.55-7.35,13.96-3.92,3.43-8.64,5.33-14.15,5.7s-10.72,.43-15.62,.18c-1.23-.24-2.33-.37-3.31-.37h-212.75c-1.72,0-3.8-.18-6.25-.55-2.45-.37-4.84-1.22-7.17-2.57-2.33-1.34-4.35-3.18-6.06-5.51-1.72-2.33-2.57-5.57-2.57-9.74,0-7.1,2.39-12.55,7.17-16.35,4.78-3.79,9.98-5.7,15.62-5.7h215.69Zm-101.05-19.47c-17.64,0-34.12-.61-49.42-1.84-15.31-1.22-28.54-3.98-39.68-8.27-11.15-4.28-19.91-10.41-26.27-18.37-6.37-7.96-9.55-18.68-9.55-32.15,0-12.25,3.18-22.29,9.55-30.13,6.37-7.84,15.12-14.02,26.27-18.56,11.14-4.53,24.37-7.65,39.68-9.37,15.31-1.71,31.78-2.57,49.42-2.57s34.11,.61,49.42,1.84c15.31,1.23,28.53,3.92,39.68,8.08,11.14,4.17,19.9,10.23,26.27,18.19,6.37,7.96,9.55,18.8,9.55,32.52s-3.19,24.19-9.55,32.15c-6.37,7.96-15.13,14.09-26.27,18.37-11.15,4.29-24.38,7.04-39.68,8.27-15.31,1.23-31.78,1.84-49.42,1.84Zm-112.44,175.64c-.25,0-.61-.25-1.1-.74-2.45-1.96-4.1-4.66-4.96-8.08-.86-3.43-1.29-6.49-1.29-9.19-.25-4.41-.55-8.82-.92-13.23-.37-4.41-.55-8.7-.55-12.86v-17.27c0-5.14,.61-10.78,1.84-16.9,.73-3.92,1.96-7.04,3.67-9.37,1.71-2.33,4.41-4.23,8.08-5.7,6.86-2.69,13.72-4.04,20.58-4.04h169.39c4.65,.25,9.43,.61,14.33,1.1,4.9,.49,9.55,1.72,13.96,3.67,4.9,1.96,8.14,4.72,9.74,8.27,1.59,3.55,2.63,7.78,3.12,12.68,.24,4.17,.42,8.95,.55,14.33,.12,5.39,.06,10.84-.18,16.35-.25,5.51-.61,10.96-1.1,16.35-.49,5.38-1.35,10.29-2.57,14.7-.73,2.69-1.6,5.08-2.57,7.17-.98,2.08-2.94,3.61-5.88,4.59-2.7,.98-5.45,1.59-8.27,1.84-2.82,.24-5.57,.37-8.27,.37l-187.77-.74c-3.19-.25-6.61-.37-10.29-.37s-6.86-.98-9.55-2.94Zm34.91-41.89c0,1.22,.06,2.45,.18,3.67,.12,1.22,.55,2.08,1.29,2.57,.49,.49,1.29,.79,2.39,.92,1.1,.12,2.26,.18,3.49,.18s2.69-.13,4.41-.37h111.34c3.43,.24,6.73,.49,9.92,.74,2.69,.24,5.51,.37,8.45,.37s5.63-.25,8.08-.74c2.45-.25,3.92-.98,4.41-2.2,.49-1.23,.86-2.94,1.1-5.14,.24-1.96,.37-4.23,.37-6.8s-.73-4.83-2.21-6.8c-1.72-1.96-4.1-3-7.17-3.12-3.07-.12-5.82-.06-8.27,.18h-98.48c-5.39-.49-10.66-.67-15.8-.55-5.14,.13-10.42,.31-15.8,.55-1.96,0-3.49,.06-4.59,.18-1.1,.13-1.9,1.29-2.39,3.49-.49,1.72-.73,3.37-.73,4.96v4.59c.24,.49,.3,.98,.18,1.47-.13,.49-.18,1.1-.18,1.84Zm77.53-213.86c-9.07,0-18.07,.13-27.01,.37-8.95,.25-16.97,1.04-24.07,2.39-7.11,1.35-12.86,3.31-17.27,5.88-4.41,2.57-6.61,6.19-6.61,10.84,0,8.33,6.67,13.91,20.03,16.72,13.35,2.82,31.66,3.98,54.93,3.49,9.06,0,18.06-.06,27.01-.18,8.94-.12,16.96-.73,24.07-1.84,7.1-1.1,12.86-3.06,17.27-5.88,4.41-2.81,6.61-6.92,6.61-12.31,0-4.65-2.2-8.27-6.61-10.84-4.41-2.57-10.17-4.53-17.27-5.88-7.11-1.34-15.13-2.14-24.07-2.39-8.95-.24-17.95-.37-27.01-.37Z"/>
    <path class="cls-1" d="M2200.24,170.97c1.96-.24,4.16-.42,6.61-.55,2.45-.12,5.02-.18,7.72-.18h90.03c12.98-.24,25.72-.37,38.21-.37h33.07c11.51,0,21.43,.13,29.76,.37h1.84c4.9,.25,9.79,.37,14.7,.37s9.79,.98,14.7,2.94c3.43,1.23,6.18,3.31,8.27,6.25,2.08,2.94,3.12,6.25,3.12,9.92,0,6.13-2.45,11.27-7.35,15.43-3.92,3.43-8.7,5.39-14.33,5.88-5.64,.49-10.9,.49-15.8,0h-214.22c-1.96,0-4.23-.24-6.8-.74-2.57-.49-5.27-1.22-8.08-2.21-2.82-.98-5.09-2.45-6.8-4.41-2.94-2.94-4.41-7.1-4.41-12.49s1.59-9.31,4.78-12.49,6.49-5.08,9.92-5.7c3.43-.61,6.98-1.16,10.66-1.65,.73,0,1.47-.06,2.2-.18,.73-.12,1.47-.18,2.2-.18Zm213.86,149.55c3.67,.49,6.98,1.53,9.92,3.12,2.94,1.59,5.02,4.47,6.25,8.64,2.94,9.06-.25,15.67-9.55,19.84-2.7,1.22-5.51,1.96-8.45,2.21-2.94,.24-5.76,.37-8.45,.37h-169.03c-4.9,0-9.92-.06-15.07-.18-5.14-.13-10.42-.31-15.8-.55-4.9-.25-9.07-2.2-12.49-5.88-3.43-3.67-5.39-8.45-5.88-14.33l-1.1-27.19c-.25-2.7-.25-6,0-9.92,.24-3.92,1.47-7.1,3.67-9.55,3.43-3.92,7.96-6.37,13.6-7.35,5.63-.98,11.14-1.47,16.54-1.47h16.9c7.84,0,18.49,.06,31.97,.18,13.47,.13,30.19,.18,50.16,.18h71.47v-13.96h-185.2c-1.96,0-3.8-.24-5.51-.74-2.2-.73-4.17-1.34-5.88-1.84-1.72-.49-3.19-1.71-4.41-3.67-3.43-5.63-4.29-11.14-2.57-16.54,.73-2.2,1.84-3.92,3.31-5.14,1.47-1.22,3.12-2.2,4.96-2.94,1.84-.73,3.73-1.22,5.7-1.47,1.96-.24,3.55-.49,4.78-.73,3.67-.74,7.47-1.1,11.39-1.1h18.56c6.98,0,16.78,.06,29.4,.18,12.61,.13,29.15,.18,49.61,.18h79.55c12.49,0,21.98,2.02,28.48,6.06,6.49,4.04,9.74,10.6,9.74,19.66v27.19c0,3.43-.8,6.92-2.39,10.47-1.6,3.55-4.35,6.56-8.27,9-2.94,1.96-6.01,3-9.19,3.12-3.19,.12-6.37,.18-9.55,.18h-171.97v13.96h184.83Zm-228.19-220.47c0-10.04,2.88-18.56,8.64-25.54,5.75-6.98,13.96-12.61,24.62-16.9,10.66-4.28,23.7-7.41,39.13-9.37,15.43-1.96,32.94-2.94,52.55-2.94s35.64,.8,51.08,2.39c15.43,1.6,28.66,4.41,39.68,8.45s19.53,9.62,25.54,16.72c6,7.11,9,16.17,9,27.19s-2.57,20.09-7.72,27.19c-5.14,7.11-12.99,12.68-23.52,16.72-10.54,4.04-23.64,6.86-39.32,8.45-15.68,1.6-33.93,2.39-54.75,2.39-17.4,0-33.62-.79-48.69-2.39-15.07-1.59-28.29-4.41-39.68-8.45s-20.34-9.61-26.82-16.72c-6.49-7.1-9.74-16.17-9.74-27.19Zm199.89,0c0-3.92-2.27-7.1-6.8-9.55-4.54-2.45-10.35-4.35-17.45-5.7-7.11-1.34-15.13-2.26-24.07-2.76-8.95-.49-17.82-.74-26.64-.74s-17.52,.25-26.09,.74c-8.58,.49-16.29,1.41-23.15,2.76-6.86,1.35-12.44,3.25-16.72,5.7-4.29,2.45-6.43,5.64-6.43,9.55,0,3.43,2.08,6.25,6.25,8.45,4.16,2.21,9.67,3.92,16.54,5.14,6.85,1.23,14.51,2.08,22.97,2.57,8.45,.49,17.09,.74,25.91,.74s17.69-.06,26.64-.18c8.94-.12,17.09-.67,24.44-1.65,7.35-.98,13.29-2.63,17.82-4.96,4.53-2.33,6.8-5.7,6.8-10.11Z"/>
    <path class="cls-1" d="M2693.72,59.27c14.7,7.84,25.17,18.62,31.42,32.34,6.25,13.72,8.63,30.13,7.17,49.24-1.47,24.5-8.39,42.75-20.76,54.75-12.37,12.01-31.3,18.01-56.77,18.01-6.61,0-12.68,.06-18.19,.18-5.51,.13-10.72-.18-15.62-.92-4.9-.74-9.92-2.02-15.07-3.86-5.14-1.84-10.66-4.71-16.54-8.63-11.52-7.59-19.42-17.51-23.7-29.76-4.29-12.25-6.43-24.86-6.43-37.85s2.33-25.17,6.98-36.56c4.65-11.39,12.25-21.13,22.78-29.21,8.57-6.86,18.19-11.88,28.84-15.07,10.66-3.18,21.37-4.28,32.15-3.31,4.9,.49,9.12,.92,12.68,1.29,3.55,.37,6.92,.92,10.1,1.65,3.18,.73,6.37,1.72,9.55,2.94,3.18,1.23,6.98,2.82,11.39,4.78Zm124.57,246.56c2.94,2.45,6.37,4.96,10.29,7.53,3.92,2.57,6.25,5.94,6.98,10.1,.74,3.43,.3,6.98-1.29,10.66-1.6,3.67-3.74,6.61-6.43,8.82-4.17,3.43-8.21,4.9-12.13,4.41-3.92-.49-8.08-1.72-12.49-3.67-9.07-4.17-17.76-8.82-26.09-13.96-8.33-5.14-16.66-10.54-24.99-16.17-4.17-2.7-8.21-5.58-12.13-8.64-3.92-3.06-7.84-5.94-11.76-8.63-2.7-1.96-5.51-4.16-8.45-6.61-2.94-2.45-6.37-3.43-10.29-2.94-3.43,.25-6.13,.98-8.08,2.21-1.96,1.23-4.17,2.82-6.61,4.78-2.7,1.96-5.57,4.17-8.64,6.61-3.07,2.45-5.7,4.65-7.9,6.61-6.37,5.39-13.29,10.84-20.76,16.35-7.48,5.51-14.76,10.1-21.86,13.78-2.7,1.47-5.76,2.94-9.19,4.41-3.43,1.47-6.86,2.63-10.29,3.49-3.43,.86-6.92,1.22-10.47,1.1-3.55-.13-6.8-.92-9.74-2.39-3.92-1.96-6.74-4.9-8.45-8.82-1.72-3.92-1.96-7.96-.73-12.12,1.22-4.17,3.98-7.84,8.27-11.02,4.28-3.19,7.9-6,10.84-8.45,9.31-7.1,19.35-14.51,30.13-22.23,10.78-7.72,20.94-15,30.5-21.86,4.16-3.18,8.32-5.94,12.49-8.27,4.16-2.33,8.33-5.2,12.49-8.63,7.1-5.39,14.2-8.64,21.31-9.74,7.1-1.1,14.94,2.02,23.52,9.37l81.94,63.94Zm-129.71-160.94c0-5.39-.25-10.47-.73-15.25-.49-4.78-1.53-9.19-3.12-13.23-1.6-4.04-3.98-7.65-7.17-10.84-3.19-3.18-7.35-5.75-12.49-7.72-5.64-1.96-11.76-2.94-18.37-2.94s-12.86,1.17-18.74,3.49c-5.88,2.33-11.02,5.88-15.43,10.66-4.41,4.78-7.23,10.97-8.45,18.56-.73,5.14-.68,10.35,.18,15.62,.86,5.27,2.69,10.05,5.51,14.33,2.81,4.29,6.73,7.9,11.76,10.84,5.02,2.94,11.33,4.78,18.92,5.51,5.14,.49,10.29,.43,15.43-.18,5.14-.61,9.92-2.02,14.33-4.23,4.41-2.2,8.2-5.33,11.39-9.37,3.18-4.04,5.51-9.12,6.98-15.25Zm138.9,56.96c-.49,3.43-1.1,6.25-1.84,8.45s-1.84,4.47-3.31,6.8c-1.47,2.33-3.43,4.23-5.88,5.7-3.43,1.96-6.86,2.94-10.29,2.94-4.17,0-8.21-1.34-12.13-4.04-2.7-1.96-4.78-4.53-6.25-7.72-1.96-3.67-3.25-7.72-3.86-12.13-.61-4.41-.98-8.94-1.1-13.6-.13-4.65-.06-9.24,.18-13.78,.24-4.53,.37-8.88,.37-13.04,.24-10.53,.37-22.17,.37-34.91v-39.32c-.25-2.69-.31-5.57-.18-8.64,.12-3.06,.55-5.94,1.29-8.63,.98-3.67,3.18-7.59,6.61-11.76,1.96-2.45,4.71-4.23,8.27-5.33,3.55-1.1,7.41-1.41,11.58-.92,7.35,1.23,12.25,4.41,14.7,9.55,1.47,3.19,2.14,7.11,2.02,11.76-.13,4.66-.31,7.47-.55,8.45v120.16Z"/>
    <path class="cls-1" d="M3014.13,282.68c7.1,0,13.53,1.23,19.29,3.67,5.75,2.45,9.12,7.6,10.1,15.43,.49,3.92-.06,7.47-1.65,10.66-1.6,3.18-3.74,5.88-6.43,8.08-2.7,2.21-5.82,3.92-9.37,5.14-3.55,1.22-6.92,1.96-10.1,2.2h-86.35c-5.64-.25-11.45-.49-17.45-.73-6.01-.25-11.82-1.23-17.45-2.94-3.92-1.23-7.6-3.43-11.02-6.61-3.43-3.19-6.13-6.86-8.08-11.02-1.23-2.7-2.08-5.94-2.57-9.74-.49-3.8-.86-7.47-1.1-11.02-.25-3.55-.31-6.67-.18-9.37,.12-2.69,.18-4.16,.18-4.41V115.85c0-.74-.13-2.69-.37-5.88-.25-3.18-.31-6.86-.18-11.02,.12-4.16,.49-8.45,1.1-12.86,.61-4.41,1.89-8.08,3.86-11.02,1.47-2.45,4.1-4.41,7.9-5.88,3.79-1.47,7.72-2.57,11.76-3.31,4.04-.73,7.72-1.16,11.02-1.29,3.31-.12,5.33-.18,6.06-.18h91.68c3.55,0,7.41,.43,11.57,1.29,4.16,.86,8.21,2.27,12.13,4.23,3.92,1.96,6.49,4.9,7.72,8.82,.49,1.47,.79,3.25,.92,5.33,.12,2.08,.18,4.29,.18,6.61s-.18,4.47-.55,6.43c-.37,1.96-.8,3.43-1.29,4.41-1.72,3.19-4.78,5.39-9.19,6.61-4.9,1.23-11.88,1.84-20.94,1.84h-4.96c-1.84,0-4.66-.06-8.45-.18-3.8-.12-9.07-.18-15.8-.18h-27.01c-3.43,0-6.92,.13-10.47,.37-3.55,.25-6.19,.73-7.9,1.47-1.72,.73-3,2.15-3.86,4.23-.86,2.08-1.47,4.41-1.84,6.98s-.55,5.09-.55,7.53,.12,4.41,.37,5.88v.37l1.47,127.14c0,4.9,1.1,8.88,3.31,11.94,2.2,3.07,6.12,4.59,11.76,4.59,.74,0,3.36,.18,7.9,.55,4.53,.37,10.29,.68,17.27,.92,6.98,.25,14.63,.49,22.97,.74,8.32,.25,16.54,.37,24.62,.37Zm126.77-116.11c4.41,.98,8.27,2.94,11.57,5.88s4.96,7.11,4.96,12.49c0,1.96-.06,3.74-.18,5.33-.13,1.6-.43,3.37-.92,5.33-.74,4.17-2.27,7.72-4.59,10.66-2.33,2.94-5.82,4.41-10.47,4.41l-30.13,.37c-.25,6.37-.37,13.47-.37,21.31v24.25c0,8.33,.06,16.72,.18,25.17,.12,8.45,.18,16.48,.18,24.07,0,3.18-.13,7.1-.37,11.76-.25,4.65-1.1,9.12-2.57,13.41-1.47,4.28-3.67,8.02-6.61,11.21-2.94,3.18-7.11,4.9-12.49,5.14-5.88,.49-10.54-.49-13.96-2.94-3.43-2.45-6-5.57-7.72-9.37-1.72-3.8-2.82-7.96-3.31-12.49-.49-4.54-.73-8.76-.73-12.68V80.76c0-2.08,.24-4.53,.73-7.35,.49-2.81,1.29-5.75,2.39-8.82,1.1-3.06,2.63-5.57,4.59-7.53,1.71-1.71,4.23-3,7.53-3.86,3.31-.86,6.3-1.29,9-1.29,5.39,0,9.92,1.84,13.6,5.51,3.43,3.43,5.45,7.04,6.06,10.84,.61,3.8,1.16,7.78,1.65,11.94,1.22,13.47,2.02,27.32,2.39,41.52,.37,14.21,.55,28.29,.55,42.26l29.03,2.57Z"/>
  </g>
</svg>